<svg width="41" height="40" viewBox="0 0 41 40" fill="none" xmlns="http://www.w3.org/2000/svg">
<g clip-path="url(#clip0_113_3387)">
<path d="M40.4203 21.4779C40.4577 20.9906 40.4764 20.4953 40.4764 19.992C40.4764 17.9036 40.156 15.8795 39.5553 13.9839C39.0346 12.3213 37.1443 11.7671 35.6304 12.6426L30.7844 15.4458C29.2706 16.3213 29.3186 17.6466 30.8886 18.4096L37.4086 21.5743C38.9866 22.3373 40.3563 22.2972 40.4203 21.4779Z" fill="#E9C6D9"/>
<path d="M29.8874 14.1365L34.8695 11.253C36.3834 10.3775 36.888 8.43373 35.7666 7.10039C34.1646 5.21284 32.2262 3.62248 30.0315 2.43373C28.5016 1.59839 27.148 2.57027 27.148 4.32128V12.5542C27.148 14.3052 28.3735 15.012 29.8874 14.1365Z" fill="#F6BDC9"/>
<path d="M3.21447 10.2249C1.59647 13.1165 0.667328 16.4498 0.667328 19.992C0.667328 22.3614 1.08384 24.6345 1.83677 26.739C2.4295 28.3855 4.36789 28.9157 5.87375 28.0402L21.9336 18.739C23.4474 17.8635 23.3994 16.5381 21.8294 15.7751L7.82015 8.97992C6.25021 8.21686 4.07153 8.69879 3.21447 10.2249Z" fill="#E6B8D6"/>
<path d="M25.57 12.6667V3.83936C25.57 2.08835 24.4727 0.369478 23.087 0.192772C22.2646 0.0910313 21.4263 0.0401611 20.5719 0.0401611C15.9742 0.0401611 11.745 1.59839 8.37282 4.2249C6.99512 5.30121 7.31552 6.97992 8.88546 7.73494L22.7265 14.4498C24.2965 15.2129 25.57 14.4177 25.57 12.6667Z" fill="#F5B8C9"/>
<path d="M27.148 21.5261V35.6626C27.148 37.4136 28.5016 38.3855 30.0315 37.5502C34.0525 35.3735 37.2324 31.8474 38.9866 27.5823C39.6514 25.9598 38.6742 23.9518 37.1043 23.1887L29.9915 19.7349C28.4216 18.9719 27.148 19.7751 27.148 21.5261Z" fill="#F8D1DE"/>
<path d="M22.8306 20.0482L6.69073 29.3976C5.18487 30.2731 4.7203 32.1847 5.89775 33.4699C9.53423 37.4538 14.7647 39.9518 20.5718 39.9518C21.4262 39.9518 22.2646 39.8983 23.0869 39.7912C24.4727 39.6145 25.57 37.8956 25.57 36.1446V21.6305C25.57 19.8875 24.3445 19.1727 22.8306 20.0482Z" fill="#E6B9CA"/>
</g>
<defs>
<clipPath id="clip0_113_3387">
<rect width="39.8892" height="40" fill="white" transform="translate(0.659302)"/>
</clipPath>
</defs>
</svg>
