<?xml version="1.0" encoding="UTF-8" standalone="no" ?>
<!DOCTYPE svg PUBLIC "-//W3C//DTD SVG 1.1//EN" "http://www.w3.org/Graphics/SVG/1.1/DTD/svg11.dtd">
<svg xmlns="http://www.w3.org/2000/svg" xmlns:xlink="http://www.w3.org/1999/xlink" version="1.1" width="1080" height="1080" viewBox="0 0 1080 1080" xml:space="preserve">
<desc>Created with Fabric.js 5.2.4</desc>
<defs>
</defs>
<g transform="matrix(1 0 0 1 540 540)" id="03cd6554-939f-4605-a6ce-6588e17a36ce"  >
<rect style="stroke: none; stroke-width: 1; stroke-dasharray: none; stroke-linecap: butt; stroke-dashoffset: 0; stroke-linejoin: miter; stroke-miterlimit: 4; fill: rgb(255,255,255); fill-rule: nonzero; opacity: 1; visibility: hidden;" vector-effect="non-scaling-stroke"  x="-540" y="-540" rx="0" ry="0" width="1080" height="1080" />
</g>
<g transform="matrix(Infinity NaN NaN Infinity 0 0)" id="9151512d-1aa9-459f-b1ab-7780d2a92495"  >
</g>
<g transform="matrix(25.92 0 0 25.84 125.3 540)"  >
<g style="" vector-effect="non-scaling-stroke"   >
		<g transform="matrix(1 0 0 1 14.51 -2.82)" clip-path="url(#CLIPPATH_3)"  >
<clipPath id="CLIPPATH_3" >
	<rect transform="matrix(1 0 0 1 -14.47 2.82)" id="clip0_113_3387" x="-19.9446" y="-20" rx="0" ry="0" width="39.8892" height="40" />
</clipPath>
<path style="stroke: none; stroke-width: 1; stroke-dasharray: none; stroke-linecap: butt; stroke-dashoffset: 0; stroke-linejoin: miter; stroke-miterlimit: 4; fill: rgb(185,66,147); fill-rule: nonzero; opacity: 1;" vector-effect="non-scaling-stroke"  transform=" translate(-35.08, -17.18)" d="M 40.4203 21.4779 C 40.4577 20.9906 40.4764 20.4953 40.4764 19.992 C 40.4764 17.9036 40.156 15.8795 39.5553 13.9839 C 39.0346 12.3213 37.1443 11.7671 35.6304 12.6426 L 30.7844 15.4458 C 29.2706 16.3213 29.3186 17.6466 30.8886 18.4096 L 37.4086 21.5743 C 38.9866 22.3373 40.3563 22.2972 40.4203 21.4779 Z" stroke-linecap="round" />
</g>
		<g transform="matrix(1 0 0 1 11.19 -11.67)" clip-path="url(#CLIPPATH_4)"  >
<clipPath id="CLIPPATH_4" >
	<rect transform="matrix(1 0 0 1 -11.16 11.68)" id="clip0_113_3387" x="-19.9446" y="-20" rx="0" ry="0" width="39.8892" height="40" />
</clipPath>
<path style="stroke: none; stroke-width: 1; stroke-dasharray: none; stroke-linecap: butt; stroke-dashoffset: 0; stroke-linejoin: miter; stroke-miterlimit: 4; fill: rgb(206,32,121); fill-rule: nonzero; opacity: 1;" vector-effect="non-scaling-stroke"  transform=" translate(-31.76, -8.32)" d="M 29.8874 14.1365 L 34.8695 11.253 C 36.3834 10.3775 36.888 8.43373 35.7666 7.10039 C 34.1646 5.21284 32.2262 3.62248 30.0315 2.43373 C 28.5016 1.59839 27.148 2.57027 27.148 4.32128 L 27.148 12.5542 C 27.148 14.3052 28.3735 15.012 29.8874 14.1365 Z" stroke-linecap="round" />
</g>
		<g transform="matrix(1 0 0 1 -8.72 -1.46)" clip-path="url(#CLIPPATH_5)"  >
<clipPath id="CLIPPATH_5" >
	<rect transform="matrix(1 0 0 1 8.75 1.46)" id="clip0_113_3387" x="-19.9446" y="-20" rx="0" ry="0" width="39.8892" height="40" />
</clipPath>
<path style="stroke: none; stroke-width: 1; stroke-dasharray: none; stroke-linecap: butt; stroke-dashoffset: 0; stroke-linejoin: miter; stroke-miterlimit: 4; fill: rgb(179,21,109); fill-rule: nonzero; opacity: 1;" vector-effect="non-scaling-stroke"  transform=" translate(-11.85, -18.54)" d="M 3.21447 10.2249 C 1.59647 13.1165 0.667328 16.4498 0.667328 19.992 C 0.667328 22.3614 1.08384 24.6345 1.83677 26.739 C 2.4295 28.3855 4.36789 28.9157 5.87375 28.0402 L 21.9336 18.739 C 23.4474 17.8635 23.3994 16.5381 21.8294 15.7751 L 7.82015 8.97992 C 6.25021 8.21686 4.07153 8.69879 3.21447 10.2249 Z" stroke-linecap="round" />
</g>
		<g transform="matrix(1 0 0 1 -4.04 -12.61)" clip-path="url(#CLIPPATH_6)"  >
<clipPath id="CLIPPATH_6" >
	<rect transform="matrix(1 0 0 1 4.07 12.61)" id="clip0_113_3387" x="-19.9446" y="-20" rx="0" ry="0" width="39.8892" height="40" />
</clipPath>
<path style="stroke: none; stroke-width: 1; stroke-dasharray: none; stroke-linecap: butt; stroke-dashoffset: 0; stroke-linejoin: miter; stroke-miterlimit: 4; fill: rgb(194,24,120); fill-rule: nonzero; opacity: 1;" vector-effect="non-scaling-stroke"  transform=" translate(-16.54, -7.39)" d="M 25.57 12.6667 L 25.57 3.83936 C 25.57 2.08835 24.4727 0.369478 23.087 0.192772 C 22.2646 0.0910313 21.4263 0.0401611 20.5719 0.0401611 C 15.9742 0.0401611 11.745 1.59839 8.37282 4.2249 C 6.99512 5.30121 7.31552 6.97992 8.88546 7.73494 L 22.7265 14.4498 C 24.2965 15.2129 25.57 14.4177 25.57 12.6667 Z" stroke-linecap="round" />
</g>
		<g transform="matrix(1 0 0 1 12.6 8.65)" clip-path="url(#CLIPPATH_7)"  >
<clipPath id="CLIPPATH_7" >
	<rect transform="matrix(1 0 0 1 -12.57 -8.65)" id="clip0_113_3387" x="-19.9446" y="-20" rx="0" ry="0" width="39.8892" height="40" />
</clipPath>
<path style="stroke: none; stroke-width: 1; stroke-dasharray: none; stroke-linecap: butt; stroke-dashoffset: 0; stroke-linejoin: miter; stroke-miterlimit: 4; fill: rgb(205,69,147); fill-rule: nonzero; opacity: 1;" vector-effect="non-scaling-stroke"  transform=" translate(-33.17, -28.65)" d="M 27.148 21.5261 L 27.148 35.6626 C 27.148 37.4136 28.5016 38.3855 30.0315 37.5502 C 34.0525 35.3735 37.2324 31.8474 38.9866 27.5823 C 39.6514 25.9598 38.6742 23.9518 37.1043 23.1887 L 29.9915 19.7349 C 28.4216 18.9719 27.148 19.7751 27.148 21.5261 Z" stroke-linecap="round" />
</g>
		<g transform="matrix(1 0 0 1 -5.17 9.82)" clip-path="url(#CLIPPATH_8)"  >
<clipPath id="CLIPPATH_8" >
	<rect transform="matrix(1 0 0 1 5.2 -9.81)" id="clip0_113_3387" x="-19.9446" y="-20" rx="0" ry="0" width="39.8892" height="40" />
</clipPath>
<path style="stroke: none; stroke-width: 1; stroke-dasharray: none; stroke-linecap: butt; stroke-dashoffset: 0; stroke-linejoin: miter; stroke-miterlimit: 4; fill: rgb(180,22,133); fill-rule: nonzero; opacity: 1;" vector-effect="non-scaling-stroke"  transform=" translate(-15.4, -29.81)" d="M 22.8306 20.0482 L 6.69073 29.3976 C 5.18487 30.2731 4.7203 32.1847 5.89775 33.4699 C 9.53423 37.4538 14.7647 39.9518 20.5718 39.9518 C 21.4262 39.9518 22.2646 39.8983 23.0869 39.7912 C 24.4727 39.6145 25.57 37.8956 25.57 36.1446 L 25.57 21.6305 C 25.57 19.8875 24.3445 19.1727 22.8306 20.0482 Z" stroke-linecap="round" />
</g>
</g>
</g>
</svg>