<?xml version="1.0" encoding="UTF-8"?>
<svg xmlns="http://www.w3.org/2000/svg" xmlns:xlink="http://www.w3.org/1999/xlink" width="1476px" height="1440px" viewBox="0 0 1476 1440" version="1.1">
<g id="surface1">
<path style=" stroke:none;fill-rule:nonzero;fill:rgb(72.54902%,25.882353%,57.647059%);fill-opacity:1;" d="M 1455.128906 773.203125 C 1456.476562 755.660156 1457.152344 737.832031 1457.152344 719.710938 C 1457.152344 644.53125 1445.617188 571.660156 1423.992188 503.421875 C 1405.246094 443.566406 1337.195312 423.617188 1282.695312 455.132812 L 1108.238281 556.046875 C 1053.742188 587.566406 1055.46875 635.277344 1111.988281 662.746094 L 1346.710938 776.675781 C 1403.519531 804.144531 1452.828125 802.699219 1455.128906 773.203125 Z M 1455.128906 773.203125 "/>
<path style=" stroke:none;fill-rule:nonzero;fill:rgb(80.784314%,12.54902%,47.45098%);fill-opacity:1;" d="M 1075.945312 508.914062 L 1255.300781 405.109375 C 1309.800781 373.589844 1327.96875 303.613281 1287.597656 255.613281 C 1229.925781 187.664062 1160.144531 130.410156 1081.132812 87.613281 C 1026.058594 57.542969 977.328125 92.53125 977.328125 155.566406 L 977.328125 451.953125 C 977.328125 514.988281 1021.445312 540.433594 1075.945312 508.914062 Z M 1075.945312 508.914062 "/>
<path style=" stroke:none;fill-rule:nonzero;fill:rgb(70.196078%,8.235294%,42.745098%);fill-opacity:1;" d="M 115.722656 368.097656 C 57.472656 472.195312 24.023438 592.191406 24.023438 719.710938 C 24.023438 805.011719 39.019531 886.84375 66.125 962.605469 C 87.460938 1021.878906 157.242188 1040.964844 211.453125 1009.445312 L 789.609375 674.605469 C 844.105469 643.085938 842.378906 595.371094 785.859375 567.902344 L 281.527344 323.277344 C 225.007812 295.808594 146.574219 313.15625 115.722656 368.097656 Z M 115.722656 368.097656 "/>
<path style=" stroke:none;fill-rule:nonzero;fill:rgb(76.078431%,9.411765%,47.058824%);fill-opacity:1;" d="M 920.519531 456 L 920.519531 138.21875 C 920.519531 75.179688 881.015625 13.300781 831.132812 6.941406 C 801.527344 3.277344 771.347656 1.445312 740.589844 1.445312 C 575.070312 1.445312 422.820312 57.542969 301.421875 152.097656 C 251.824219 190.84375 263.359375 251.277344 319.875 278.457031 L 818.152344 520.191406 C 874.675781 547.664062 920.519531 519.039062 920.519531 456 Z M 920.519531 456 "/>
<path style=" stroke:none;fill-rule:nonzero;fill:rgb(80.392157%,27.058824%,57.647059%);fill-opacity:1;" d="M 977.328125 774.941406 L 977.328125 1283.855469 C 977.328125 1346.890625 1026.058594 1381.878906 1081.132812 1351.808594 C 1225.890625 1273.445312 1340.367188 1146.507812 1403.519531 992.960938 C 1427.449219 934.554688 1392.269531 862.265625 1335.753906 834.792969 L 1079.695312 710.457031 C 1023.175781 682.988281 977.328125 711.902344 977.328125 774.941406 Z M 977.328125 774.941406 "/>
<path style=" stroke:none;fill-rule:nonzero;fill:rgb(70.588235%,8.627451%,52.156863%);fill-opacity:1;" d="M 821.902344 721.734375 L 240.867188 1058.3125 C 186.65625 1089.832031 169.929688 1158.648438 212.320312 1204.917969 C 343.230469 1348.335938 531.527344 1438.265625 740.585938 1438.265625 C 771.34375 1438.265625 801.527344 1436.339844 831.128906 1432.484375 C 881.015625 1426.121094 920.519531 1364.242188 920.519531 1301.207031 L 920.519531 778.699219 C 920.519531 715.949219 876.402344 690.21875 821.902344 721.734375 Z M 821.902344 721.734375 "/>
</g>
</svg>
