<?xml version="1.0" encoding="UTF-8"?>
<!-- Generator: Adobe Illustrator 24.3.0, SVG Export Plug-In . SVG Version: 6.00 Build 0)  -->
<svg width="150" height="150" version="1.1" id="Layer_1" xmlns="http://www.w3.org/2000/svg" xmlns:xlink="http://www.w3.org/1999/xlink" x="0px" y="0px" viewBox="0 0 512 512" style="enable-background:new 0 0 512 512;" xml:space="preserve">
<style type="text/css">
	.st0{fill:#0671D8;}
</style>
<g>
	<path class="st0" d="M66.06,0C29.58,0,0,29.58,0,66.06v379.87C0,482.42,29.58,512,66.06,512h379.87   c36.49,0,66.07-29.58,66.07-66.07V66.06C512,29.58,482.42,0,445.93,0H66.06z M66.06,33.03h379.87c18.24,0,33.03,14.79,33.03,33.03   v379.87c0,18.24-14.79,33.03-33.03,33.03H66.06c-18.24,0-33.03-14.79-33.03-33.03V66.06C33.03,47.82,47.82,33.03,66.06,33.03z"/>
	<rect x="231.23" y="346.84" class="st0" width="181.68" height="33.03"/>
	<path class="st0" d="M231.23,132.13v177.55h37.16V165.16h37.16v144.52h37.16V165.16h24.77c6.84,0,12.39,5.55,12.39,12.39v132.13   h37.16V173.42c0-22.8-18.49-41.29-41.29-41.29H231.23z"/>
	<path class="st0" d="M136.26,132.13c-22.8,0-41.29,18.49-41.29,41.29v94.97c0,22.8,18.49,41.29,41.29,41.29h33.03v8.26   c0,15.96-14.79,28.9-33.03,28.9h-20.64v33.03h20.64c38.77,0,70.19-27.73,70.19-61.94V132.13H136.26z M144.52,165.16h24.77v111.48   h-24.77c-6.84,0-12.39-5.55-12.39-12.39v-86.71C132.13,170.71,137.68,165.16,144.52,165.16z"/>
</g>
</svg>