<?xml version="1.0" encoding="UTF-8"?>
<svg xmlns="http://www.w3.org/2000/svg" xmlns:xlink="http://www.w3.org/1999/xlink" width="150px" height="150px" viewBox="0 0 150 150" version="1.1">
<g id="surface1">
<path style=" stroke:none;fill-rule:nonzero;fill:rgb(28.627451%,20.784314%,63.529412%);fill-opacity:1;" d="M 21.835938 119.734375 L 21.835938 44.785156 L 74.996094 14.410156 L 128.167969 44.785156 L 128.167969 105.324219 L 74.996094 135.707031 L 46.851562 119.621094 L 46.851562 59.304688 L 74.996094 43.222656 L 103.148438 59.304688 L 103.148438 90.804688 L 74.996094 106.886719 L 71.875 105.105469 L 71.875 73.824219 L 87.601562 64.832031 L 74.996094 57.632812 L 59.363281 66.570312 L 59.363281 112.359375 L 74.996094 121.296875 L 115.65625 98.0625 L 115.65625 52.046875 L 74.996094 28.816406 L 34.34375 52.046875 L 34.34375 126.878906 L 74.996094 150.113281 L 140.675781 112.585938 L 140.675781 37.527344 L 74.996094 0 L 9.324219 37.527344 L 9.324219 112.585938 Z M 21.835938 119.734375 "/>
</g>
</svg>
