<?xml version="1.0" encoding="utf-8"?>
<!-- Generator: Adobe Illustrator 28.0.0, SVG Export Plug-In . SVG Version: 6.00 Build 0)  -->
<svg width="150" height="150" version="1.1" id="Layer_1" xmlns="http://www.w3.org/2000/svg" xmlns:xlink="http://www.w3.org/1999/xlink" x="0px" y="0px"
	 viewBox="0 0 512 512" style="enable-background:new 0 0 512 512;" xml:space="preserve">
<style type="text/css">
	.st0{fill:#EB1700;}
</style>
<path class="st0" d="M50.39,275.85c-5.02,0-7.81-4.75-7.81-13.34c0-8.73,2.8-13.34,7.81-13.34s7.81,4.69,7.81,13.34
	C58.19,271.23,55.39,275.85,50.39,275.85z M50.39,245.59c-10.22,0-15.88,7.62-15.88,16.92c0,9.3,5.66,16.92,15.88,16.92
	s15.88-7.62,15.88-16.92C66.27,253.2,60.6,245.59,50.39,245.59z M121.39,245.59c-4.82,0-7.48,2.09-8.98,4.75h-0.39v-4.1h-7.68v32.54
	h7.68v-21.02c0-4.81,2.48-7.62,6.44-7.62c3.84,0,5.53,2.54,5.53,6.38v22.26h7.68v-22.33C131.67,249.75,128.16,245.59,121.39,245.59z
	 M149.11,245.59c-7.09,0-12.43,2.99-12.43,9.37c0,5.41,3.71,8.34,7.87,9.37l6.51,1.62c3.45,0.84,5.02,2.09,5.02,4.82
	c0,3.32-2.34,5.21-6.44,5.21c-4.43,0-6.7-2.15-7.42-7.55l-6.9,1.95c0.39,5.6,5.6,9.05,13.48,9.05c8.79,0,13.54-4.1,13.54-10.61
	c0-6.12-4.23-8.66-8.66-9.76l-6.25-1.56c-3.12-0.78-4.49-2.21-4.49-4.3c0-2.6,2.21-4.16,5.53-4.16c3.91,0,6.31,2.15,6.64,6.25
	l6.51-1.95C160.83,248.77,156.33,245.59,149.11,245.59z M181.39,275.85c-5.02,0-7.81-4.75-7.81-13.34c0-8.73,2.8-13.34,7.81-13.34
	s7.81,4.69,7.81,13.34C189.21,271.23,186.4,275.85,181.39,275.85z M181.39,245.59c-10.22,0-15.88,7.62-15.88,16.92
	c0,9.3,5.66,16.92,15.88,16.92c10.22,0,15.88-7.62,15.88-16.92C197.28,253.2,191.61,245.59,181.39,245.59z M218.88,245.59
	c-4.82,0-7.48,2.09-8.98,4.75h-0.39v-4.1h-7.68v32.54h7.68v-21.02c0-4.81,2.48-7.62,6.44-7.62c3.84,0,5.53,2.54,5.53,6.38v22.26
	h7.68v-22.33C229.16,249.75,225.65,245.59,218.88,245.59z M332.97,275.85c-5.02,0-7.81-4.75-7.81-13.34c0-8.73,2.8-13.34,7.81-13.34
	s7.81,4.69,7.81,13.34C340.79,271.23,337.98,275.85,332.97,275.85z M332.97,245.59c-10.22,0-15.88,7.62-15.88,16.92
	c0,9.3,5.66,16.92,15.88,16.92s15.88-7.62,15.88-16.92C348.85,253.2,343.19,245.59,332.97,245.59z M403.97,245.59
	c-4.82,0-7.48,2.09-8.98,4.75h-0.39v-4.1h-7.68v32.54h7.68v-21.02c0-4.81,2.48-7.62,6.45-7.62c3.84,0,5.53,2.54,5.53,6.38v22.26
	h7.68v-22.33C414.26,249.75,410.74,245.59,403.97,245.59z M431.7,245.59c-7.09,0-12.43,2.99-12.43,9.37c0,5.41,3.71,8.34,7.87,9.37
	l6.51,1.62c3.45,0.84,5.02,2.09,5.02,4.82c0,3.32-2.34,5.21-6.44,5.21c-4.43,0-6.7-2.15-7.42-7.55l-6.9,1.95
	c0.39,5.6,5.6,9.05,13.48,9.05c8.79,0,13.54-4.1,13.54-10.61c0-6.12-4.23-8.66-8.66-9.76l-6.25-1.56c-3.13-0.78-4.49-2.21-4.49-4.3
	c0-2.6,2.21-4.16,5.53-4.16c3.91,0,6.31,2.15,6.64,6.25l6.51-1.95C443.41,248.77,438.92,245.59,431.7,245.59z M463.98,275.85
	c-5.02,0-7.81-4.75-7.81-13.34c0-8.73,2.8-13.34,7.81-13.34c5.02,0,7.81,4.69,7.81,13.34C471.79,271.23,468.99,275.85,463.98,275.85
	z M463.98,245.59c-10.22,0-15.88,7.62-15.88,16.92c0,9.3,5.66,16.92,15.88,16.92c10.22,0,15.88-7.62,15.88-16.92
	C479.86,253.2,474.2,245.59,463.98,245.59z M501.47,245.59c-4.82,0-7.48,2.09-8.98,4.75h-0.39v-4.1h-7.68v32.54h7.68v-21.02
	c0-4.81,2.48-7.62,6.44-7.62c3.84,0,5.53,2.54,5.53,6.38v22.26h7.68v-22.33C511.75,249.75,508.23,245.59,501.47,245.59z
	 M29.95,233.22h-8.07v33.64c0,5.47-2.09,8.72-7.03,8.72c-4.88,0-7.03-3.45-7.03-9.37v-6.25l-8.07,2.01v2.8
	c0,8.52,4.23,15.04,15.1,15.04c10.87,0,15.1-6.51,15.1-15.04V233.22z M78.5,233.22h-7.68v45.56h7.68v-21.02
	c0-4.81,2.48-7.62,6.44-7.62c3.84,0,5.53,2.54,5.53,6.38v22.26h7.68v-22.33c0-6.7-3.52-10.87-10.28-10.87
	c-4.82,0-7.48,2.09-8.98,4.75H78.5V233.22z M312.54,233.22h-8.07v33.64c0,5.47-2.09,8.72-7.03,8.72c-4.88,0-7.03-3.45-7.03-9.37
	v-6.25l-8.07,2.01v2.8c0,8.52,4.23,15.04,15.1,15.04s15.1-6.51,15.1-15.04V233.22z M361.09,233.22h-7.68v45.56h7.68v-21.02
	c0-4.81,2.48-7.62,6.44-7.62c3.84,0,5.53,2.54,5.53,6.38v22.26h7.68v-22.33c0-6.7-3.51-10.87-10.28-10.87
	c-4.82,0-7.48,2.09-8.98,4.75h-0.39V233.22z M254.48,275.07c-6.25,0-10.09-5.08-10.09-10.48c0-3.38,1.5-6.51,3.97-8.26l14.71,16.08
	C260.34,274.03,257.28,275.07,254.48,275.07z M268.8,267.06L256.04,253c2.28-0.91,4.49-1.23,6.31-1.23c5.27,0,8.52,3.06,8.52,8.34
	C270.89,262.44,270.23,264.85,268.8,267.06z M254.29,251.12l-2.8-3.12c-2.48-2.73-3.19-4.43-3.19-6.44c0-3.77,2.41-5.92,6.18-5.92
	c3.84,0,6.12,2.21,6.12,6.25C260.6,245.59,258.78,249.1,254.29,251.12z M254.68,232.18c-8.98,0-13.41,5.02-13.41,11.26
	c0,3.38,1.43,6.77,5.21,10.87l0.06,0.13c-6.37,3.06-9.3,8.01-9.3,13.08c0,6.7,5.14,12.3,13.08,12.3c4.55,0,9.89-1.89,14.71-5.27
	l3.9,4.23h10.22v-0.33l-8.33-9.18c3.51-4.16,5.53-8.72,5.53-12.69c0-4.94-3.32-8.26-8.52-8.26c-2.73,0-5.8,0.78-7.81,1.56
	l-0.13-0.26c4.94-2.67,7.03-5.14,7.03-8.59C266.91,236.09,262.49,232.18,254.68,232.18z"/>
</svg>
